<?xml version="1.0" encoding="utf-8"?>
<!-- Generator: Adobe Illustrator 27.5.0, SVG Export Plug-In . SVG Version: 6.00 Build 0)  -->
<svg version="1.1" id="Layer_1" xmlns="http://www.w3.org/2000/svg" xmlns:xlink="http://www.w3.org/1999/xlink" x="0px" y="0px"
	 viewBox="0 0 1080 1080" style="enable-background:new 0 0 1080 1080;" xml:space="preserve">
<style type="text/css">
	.st0{clip-path:url(#SVGID_00000022540857032007173830000004321062790023780236_);}
	.st1{fill:#6D1000;}
	.st2{fill:url(#SVGID_00000094593119154349531050000006871265007198412977_);}
	.st3{fill:#F9432B;}
	.st4{display:none;}
	.st5{display:inline;fill:#F9432B;}
	.st6{clip-path:url(#SVGID_00000104687471426840374420000002108515016351503494_);}
	.st7{fill:url(#SVGID_00000107589448239881760860000011732524388634550912_);}
	.st8{fill:#FBF7F4;}
	.st9{fill:none;stroke:#F9432B;stroke-width:5;}
	.st10{fill:#FFFFFF;}
</style>
<g>
	<defs>
		<rect id="SVGID_1_" x="189.8" y="460.74" width="700" height="158.42"/>
	</defs>
	<clipPath id="SVGID_00000023254131007047593460000004835248890619318682_">
		<use xlink:href="#SVGID_1_"  style="overflow:visible;"/>
	</clipPath>
	<g style="clip-path:url(#SVGID_00000023254131007047593460000004835248890619318682_);">
		<path class="st1" d="M844.68,524.68l-6.66-29.37c-0.58-2.37-1.8-3.55-3.67-3.55h-33.99c-1.87,0-3.06,1.18-3.57,3.55l-6.66,29.37
			H844.68z M783.55,553.57l-8.98,39.16h-29.55l22.21-97.8c2.12-9.47,5.83-17.08,11.1-22.84c5.92-6.53,13.13-9.79,21.63-9.79h34.76
			c8.5,0,15.74,3.26,21.72,9.79c5.28,5.76,8.98,13.37,11.1,22.84l22.21,97.8h-29.64l-8.88-39.16H783.55z"/>
		<path class="st1" d="M655.9,462.29v97.61c0,2.37,1.22,3.55,3.67,3.55h72.42c0,16.27-13.27,29.47-29.64,29.47h-43.16
			c-9.01,0-16.74-3.2-23.17-9.6c-6.44-6.4-9.66-14.08-9.66-23.04v-98H655.9z"/>
		
			<radialGradient id="SVGID_00000052063336111987345210000003557365710719764625_" cx="8.972" cy="1083.7039" r="1.2281" gradientTransform="matrix(-12.485 40.3154 41.1006 11.7417 -43887.4336 -12558.7051)" gradientUnits="userSpaceOnUse">
			<stop  offset="0.046" style="stop-color:#FE9F43"/>
			<stop  offset="0.9856" style="stop-color:#F9432B"/>
		</radialGradient>
		<path style="fill:url(#SVGID_00000052063336111987345210000003557365710719764625_);" d="M541.44,498.58
			c0,15.99-13.3,28.96-29.7,28.96c16.4,0,29.7,12.96,29.7,28.96c0-15.99,13.3-28.96,29.7-28.96
			C554.73,527.53,541.44,514.57,541.44,498.58z"/>
		<path class="st3" d="M508.65,462.41c-9.01,0-32.83,0.01-32.83,0.01s0,23.67,0,32.63v90.13c0,8.38,2.87,15.71,8.59,21.98
			c5.67,6.21,12.65,9.69,20.95,10.46V495.43c0-2.37,1.22-3.55,3.67-3.55h64.79c2.45,0,3.67,1.18,3.67,3.55v64.5
			c0,2.37-1.22,3.55-3.67,3.55h-61.22v29.37h61.61c9.01,0,16.74-3.2,23.17-9.6c6.44-6.33,9.66-13.98,9.66-22.94v-65.27
			c0-8.96-3.22-16.64-9.66-23.04c-6.44-6.4-14.16-9.6-23.17-9.6H508.65z"/>
		<path class="st1" d="M418.08,524.68l-6.66-29.37c-0.58-2.37-1.8-3.55-3.67-3.55h-33.99c-1.87,0-3.06,1.18-3.57,3.55l-6.66,29.37
			H418.08z M356.96,553.57l-8.98,39.16h-29.55l22.21-97.8c2.12-9.47,5.83-17.08,11.1-22.84c5.92-6.53,13.13-9.79,21.63-9.79h34.76
			c8.5,0,15.74,3.26,21.73,9.79c5.28,5.76,8.98,13.37,11.1,22.84l22.21,97.8h-29.64l-8.88-39.16H356.96z"/>
		<path class="st1" d="M191.36,488.4v-26.11h129v26.11h-50.02v104.33h-28.97V488.4H191.36z"/>
	</g>
</g>
</svg>
